ISO-10303-21;
HEADER;
FILE_DESCRIPTION (( 'STEP AP214' ),
    '1' );
FILE_NAME ('LatticeDroneArmV1.STEP',
    '2026-08-07T10:24:14',
    ( '' ),
    ( '' ),
    'SwSTEP 2.0',
    'SolidWorks 2025',
    '' );
FILE_SCHEMA (( 'AUTOMOTIVE_DESIGN' ));
ENDSEC;

DATA;
#1 = FACE_BOUND ( 'NONE', #217, .T. ) ;
#2 = ADVANCED_FACE ( 'NONE', ( #227 ), #338, .T. ) ;
#3 = LINE ( 'NONE', #394, #664 ) ;
#4 = ORIENTED_EDGE ( 'NONE', *, *, #413, .T. ) ;
#5 = FACE_OUTER_BOUND ( 'NONE', #44, .T. ) ;
#6 = CARTESIAN_POINT ( 'NONE',  ( 30.73539397255677841, 13.11398119160505971, 174.9714043947263065 ) ) ;
#7 = CARTESIAN_POINT ( 'NONE',  ( -15.26460602744324646, 13.11398119160500997, 4.757868120028709846 ) ) ;
#8 = ORIENTED_EDGE ( 'NONE', *, *, #755, .F. ) ;
#9 = DIRECTION ( 'NONE',  ( 5.935588108461891454E-16, 0.000000000000000000, 1.000000000000000000 ) ) ;
#10 = DIRECTION ( 'NONE',  ( 0.000000000000000000, 1.000000000000000000, 0.000000000000000000 ) ) ;
#11 = VECTOR ( 'NONE', #51, 1000.000000000000000 ) ;
#12 = ORIENTED_EDGE ( 'NONE', *, *, #638, .F. ) ;
#13 = VECTOR ( 'NONE', #462, 1000.000000000000000 ) ;
#14 = EDGE_CURVE ( 'NONE', #515, #151, #463, .T. ) ;
#15 = CARTESIAN_POINT ( 'NONE',  ( 2.691715389677856951, 0.000000000000000000, -1.729849433477959941 ) ) ;
#16 = ADVANCED_FACE ( 'NONE', ( #753 ), #68, .F. ) ;
#17 = CARTESIAN_POINT ( 'NONE',  ( 20.73658061723904211, 15.99999999999998579, 30.07854658845301898 ) ) ;
#18 = EDGE_CURVE ( 'NONE', #158, #628, #873, .T. ) ;
#19 = LINE ( 'NONE', #283, #32 ) ;
#20 = CARTESIAN_POINT ( 'NONE',  ( 8.420984155169891849, 1.999999999997096101, 138.6569945773395602 ) ) ;
#21 = ORIENTED_EDGE ( 'NONE', *, *, #216, .T. ) ;
#22 = DIRECTION ( 'NONE',  ( -1.000000000000000000, -0.000000000000000000, 3.579015818096174421E-15 ) ) ;
#23 = DIRECTION ( 'NONE',  ( 0.000000000000000000, 0.000000000000000000, 1.000000000000000000 ) ) ;
#24 = AXIS2_PLACEMENT_3D ( 'NONE', #734, #185, #785 ) ;
#25 = ORIENTED_EDGE ( 'NONE', *, *, #563, .F. ) ;
#26 = DIRECTION ( 'NONE',  ( 0.000000000000000000, -0.000000000000000000, 1.000000000000000000 ) ) ;
#27 = VERTEX_POINT ( 'NONE', #244 ) ;
#28 = EDGE_CURVE ( 'NONE', #650, #777, #709, .T. ) ;
#29 = LINE ( 'NONE', #437, #770 ) ;
#30 = ORIENTED_EDGE ( 'NONE', *, *, #587, .T. ) ;
#31 = CARTESIAN_POINT ( 'NONE',  ( 30.58401425420946396, 13.11398119160501530, 20.37688537445799852 ) ) ;
#32 = VECTOR ( 'NONE', #492, 1000.000000000000000 ) ;
#33 = DIRECTION ( 'NONE',  ( 0.7071067811865491270, -0.000000000000000000, 0.7071067811865459074 ) ) ;
#34 = ORIENTED_EDGE ( 'NONE', *, *, #832, .T. ) ;
#35 = DIRECTION ( 'NONE',  ( 0.000000000000000000, -0.000000000000000000, -1.000000000000000000 ) ) ;
#36 = LINE ( 'NONE', #49, #527 ) ;
#37 = ORIENTED_EDGE ( 'NONE', *, *, #120, .F. ) ;
#38 = EDGE_CURVE ( 'NONE', #27, #515, #544, .T. ) ;
#39 = LINE ( 'NONE', #380, #875 ) ;
#40 = VECTOR ( 'NONE', #467, 1000.000000000000114 ) ;
#41 = ORIENTED_EDGE ( 'NONE', *, *, #658, .T. ) ;
#42 = FACE_OUTER_BOUND ( 'NONE', #561, .T. ) ;
#43 = EDGE_CURVE ( 'NONE', #323, #666, #592, .T. ) ;
#44 = EDGE_LOOP ( 'NONE', ( #242, #683, #313, #439 ) ) ;
#45 = CARTESIAN_POINT ( 'NONE',  ( 24.73539397255682104, 15.00000000000000000, 181.9714043947262780 ) ) ;
#46 = ORIENTED_EDGE ( 'NONE', *, *, #580, .T. ) ;
#47 = DIRECTION ( 'NONE',  ( -1.286899466156778151E-16, 0.000000000000000000, -1.000000000000000000 ) ) ;
#48 = AXIS2_PLACEMENT_3D ( 'NONE', #398, #182, #457 ) ;
#49 = CARTESIAN_POINT ( 'NONE',  ( 24.73539397255681038, 14.99999999999994671, 174.9714043947263065 ) ) ;
#50 = EDGE_CURVE ( 'NONE', #257, #584, #329, .T. ) ;
#51 = DIRECTION ( 'NONE',  ( -0.7071067811865513475, -2.089869468997217691E-16, -0.7071067811865436870 ) ) ;
#52 = VERTEX_POINT ( 'NONE', #403 ) ;
#53 = DIRECTION ( 'NONE',  ( 0.7071067811865513475, 0.000000000000000000, 0.7071067811865436870 ) ) ;
#54 = CARTESIAN_POINT ( 'NONE',  ( 7.205569560582956612, 13.11398119160505971, 174.9714043947263065 ) ) ;
#55 = VECTOR ( 'NONE', #420, 1000.000000000000114 ) ;
#56 = DIRECTION ( 'NONE',  ( 0.000000000000000000, 0.000000000000000000, 1.000000000000000000 ) ) ;
#57 = ORIENTED_EDGE ( 'NONE', *, *, #443, .F. ) ;
#58 = LINE ( 'NONE', #345, #460 ) ;
#59 = DIRECTION ( 'NONE',  ( -0.000000000000000000, -1.000000000000000000, -0.000000000000000000 ) ) ;
#60 = ORIENTED_EDGE ( 'NONE', *, *, #704, .T. ) ;
#61 = CARTESIAN_POINT ( 'NONE',  ( -15.26460602744324646, 1.999999999997095657, 4.757868120028709846 ) ) ;
#62 = EDGE_CURVE ( 'NONE', #449, #166, #250, .T. ) ;
#63 = CARTESIAN_POINT ( 'NONE',  ( 30.73539397255675354, 1.999999999997095657, 4.757868120028704517 ) ) ;
#64 = CYLINDRICAL_SURFACE ( 'NONE', #784, 3.000000000000000888 ) ;
#65 = ORIENTED_EDGE ( 'NONE', *, *, #120, .T. ) ;
#66 = ADVANCED_FACE ( 'NONE', ( #744 ), #121, .F. ) ;
#67 = LINE ( 'NONE', #270, #79 ) ;
#68 = PLANE ( 'NONE',  #588 ) ;
#69 = VERTEX_POINT ( 'NONE', #256 ) ;
#70 = DIRECTION ( 'NONE',  ( -1.000000000000000000, 0.000000000000000000, 5.935588108461891454E-16 ) ) ;
#71 = AXIS2_PLACEMENT_3D ( 'NONE', #455, #179, #639 ) ;
#72 = CARTESIAN_POINT ( 'NONE',  ( 20.73658061723904211, 13.11398119160500997, 4.757868120028704517 ) ) ;
#73 = CARTESIAN_POINT ( 'NONE',  ( -15.26460602744324646, 0.000000000000000000, 1.253254279986792952 ) ) ;
#74 = ORIENTED_EDGE ( 'NONE', *, *, #86, .F. ) ;
#75 = CARTESIAN_POINT ( 'NONE',  ( 2.691715389677856507, 0.000000000000000000, 1.270150566522040503 ) ) ;
#76 = LINE ( 'NONE', #280, #347 ) ;
#77 = EDGE_CURVE ( 'NONE', #663, #384, #3, .T. ) ;
#78 = SURFACE_STYLE_FILL_AREA ( #206 ) ;
#79 = VECTOR ( 'NONE', #751, 1000.000000000000000 ) ;
#80 = DIRECTION ( 'NONE',  ( -0.000000000000000000, -1.000000000000000000, -0.000000000000000000 ) ) ;
#81 = DIRECTION ( 'NONE',  ( -3.803459357972635784E-32, 1.000000000000000000, -2.955521746645339351E-16 ) ) ;
#82 = LINE ( 'NONE', #705, #408 ) ;
#83 = VECTOR ( 'NONE', #643, 1000.000000000000000 ) ;
#84 = FILL_AREA_STYLE_COLOUR ( '', #447 ) ;
#85 = DIRECTION ( 'NONE',  ( -0.7071067811865459074, -0.000000000000000000, 0.7071067811865491270 ) ) ;
#86 = EDGE_CURVE ( 'NONE', #278, #69, #346, .T. ) ;
#87 = LINE ( 'NONE', #702, #452 ) ;
#88 = EDGE_CURVE ( 'NONE', #69, #777, #675, .T. ) ;
#89 = CARTESIAN_POINT ( 'NONE',  ( 2.265218384530699236, 1.275464723904470246E-14, 174.9714043947264202 ) ) ;
#90 = CARTESIAN_POINT ( 'NONE',  ( -15.26460602744324646, 15.00000000000000000, 1.253254279986792952 ) ) ;
#91 = ORIENTED_EDGE ( 'NONE', *, *, #361, .T. ) ;
#92 = DIRECTION ( 'NONE',  ( 0.000000000000000000, 1.000000000000000000, 0.000000000000000000 ) ) ;
#93 = CIRCLE ( 'NONE', #322, 3.000000000000002665 ) ;
#94 = CARTESIAN_POINT ( 'NONE',  ( 7.205569560582899769, 1.999999999997095657, 174.9714043947263917 ) ) ;
#95 = ADVANCED_FACE ( 'NONE', ( #604 ), #799, .F. ) ;
#96 = LINE ( 'NONE', #316, #602 ) ;
#97 = CARTESIAN_POINT ( 'NONE',  ( 16.73539397255682104, 0.000000000000000000, 181.9714043947262780 ) ) ;
#98 = AXIS2_PLACEMENT_3D ( 'NONE', #661, #732, #790 ) ;
#99 = ADVANCED_FACE ( 'NONE', ( #115 ), #64, .F. ) ;
#100 = ORIENTED_EDGE ( 'NONE', *, *, #442, .F. ) ;
#101 = DIRECTION ( 'NONE',  ( -0.000000000000000000, -1.000000000000000000, -0.000000000000000000 ) ) ;
#102 = DIRECTION ( 'NONE',  ( 5.935588108461891454E-16, 0.000000000000000000, 1.000000000000000000 ) ) ;
#103 = VERTEX_POINT ( 'NONE', #815 ) ;
#104 = ORIENTED_EDGE ( 'NONE', *, *, #187, .F. ) ;
#105 = CARTESIAN_POINT ( 'NONE',  ( 2.691715389677856507, 0.000000000000000000, 4.270150566522041835 ) ) ;
#106 = ADVANCED_FACE ( 'NONE', ( #263 ), #324, .F. ) ;
#107 = EDGE_LOOP ( 'NONE', ( #725, #659, #863, #255, #245, #573, #749, #170, #855, #330, #399 ) ) ;
#108 = DIRECTION ( 'NONE',  ( 0.7123596848290352224, -0.000000000000000000, -0.7018145619964561988 ) ) ;
#109 = ORIENTED_EDGE ( 'NONE', *, *, #700, .T. ) ;
#110 = VECTOR ( 'NONE', #117, 1000.000000000000000 ) ;
#111 = CARTESIAN_POINT ( 'NONE',  ( -15.26460602744322159, 0.000000000000000000, 189.9714043947263065 ) ) ;
#112 = CIRCLE ( 'NONE', #477, 3.000000000000002665 ) ;
#113 = CARTESIAN_POINT ( 'NONE',  ( 24.73539397255677841, 0.000000000000000000, 154.9714043947262780 ) ) ;
#114 = AXIS2_PLACEMENT_3D ( 'NONE', #193, #10, #198 ) ;
#115 = FACE_OUTER_BOUND ( 'NONE', #499, .T. ) ;
#116 = VERTEX_POINT ( 'NONE', #469 ) ;
#117 = DIRECTION ( 'NONE',  ( -1.541976423090495831E-15, -2.955521746645339351E-16, -1.000000000000000000 ) ) ;
#118 = CARTESIAN_POINT ( 'NONE',  ( 30.73539397255677841, 13.11398119160505971, 174.9714043947263065 ) ) ;
#119 = ORIENTED_EDGE ( 'NONE', *, *, #349, .F. ) ;
#120 = EDGE_CURVE ( 'NONE', #722, #257, #493, .T. ) ;
#121 = PLANE ( 'NONE',  #737 ) ;
#122 = ORIENTED_EDGE ( 'NONE', *, *, #18, .T. ) ;
#123 = CARTESIAN_POINT ( 'NONE',  ( -15.26460602744322337, 13.11398119160505971, 174.9714043947263065 ) ) ;
#124 = DIRECTION ( 'NONE',  ( 1.286899466156778151E-16, 7.492070160219495271E-15, 1.000000000000000000 ) ) ;
#125 = DIRECTION ( 'NONE',  ( -0.7071067811865459074, -0.000000000000000000, 0.7071067811865491270 ) ) ;
#126 = ORIENTED_EDGE ( 'NONE', *, *, #723, .T. ) ;
#127 = EDGE_CURVE ( 'NONE', #199, #868, #112, .T. ) ;
#128 = LINE ( 'NONE', #536, #793 ) ;
#129 = VECTOR ( 'NONE', #667, 1000.000000000000000 ) ;
#130 = CARTESIAN_POINT ( 'NONE',  ( 20.73658061723904211, 1.999999999997096101, 30.07854658845301898 ) ) ;
#131 = DIRECTION ( 'NONE',  ( -8.673617379884023639E-16, 0.000000000000000000, -1.000000000000000000 ) ) ;
#132 = ORIENTED_EDGE ( 'NONE', *, *, #743, .F. ) ;
#133 = DIRECTION ( 'NONE',  ( -5.935588108461890468E-16, 0.000000000000000000, -1.000000000000000000 ) ) ;
#134 = PRESENTATION_STYLE_ASSIGNMENT (( #213 ) ) ;
#135 = VERTEX_POINT ( 'NONE', #773 ) ;
#136 =( NAMED_UNIT ( * ) SI_UNIT ( $, .STERADIAN. ) SOLID_ANGLE_UNIT ( ) );
#137 = EDGE_LOOP ( 'NONE', ( #703, #622, #570, #309, #282, #291, #800, #153 ) ) ;
#138 = DIRECTION ( 'NONE',  ( -0.000000000000000000, -1.000000000000000000, -0.000000000000000000 ) ) ;
#139 = EDGE_CURVE ( 'NONE', #266, #515, #352, .T. ) ;
#140 = DIRECTION ( 'NONE',  ( -3.803459357972635784E-32, 1.000000000000000000, -2.955521746645339351E-16 ) ) ;
#141 = CARTESIAN_POINT ( 'NONE',  ( -3.982756142182843462, 15.00000000000000000, -10.02859560527365979 ) ) ;
#142 = VECTOR ( 'NONE', #714, 1000.000000000000000 ) ;
#143 = VERTEX_POINT ( 'NONE', #7 ) ;
#144 = CARTESIAN_POINT ( 'NONE',  ( 4.735393972556790843, 15.00000000000000000, 176.2689847742097982 ) ) ;
#145 = PLANE ( 'NONE',  #379 ) ;
#146 = ADVANCED_FACE ( 'NONE', ( #634 ), #145, .F. ) ;
#147 = ORIENTED_EDGE ( 'NONE', *, *, #832, .F. ) ;
#148 = FACE_OUTER_BOUND ( 'NONE', #852, .T. ) ;
#149 = ADVANCED_FACE ( 'NONE', ( #220 ), #699, .F. ) ;
#150 = DIRECTION ( 'NONE',  ( -5.935588108461890468E-16, 0.000000000000000000, -1.000000000000000000 ) ) ;
#151 = VERTEX_POINT ( 'NONE', #285 ) ;
#152 = CARTESIAN_POINT ( 'NONE',  ( 24.73539397255677841, 1.999999999997096101, 154.9714043947262780 ) ) ;
#153 = ORIENTED_EDGE ( 'NONE', *, *, #401, .T. ) ;
#154 = CARTESIAN_POINT ( 'NONE',  ( 24.73539397255682104, 1.999999999997096101, 181.9714043947262780 ) ) ;
#155 = VECTOR ( 'NONE', #189, 1000.000000000000000 ) ;
#156 = ORIENTED_EDGE ( 'NONE', *, *, #77, .T. ) ;
#157 = DIRECTION ( 'NONE',  ( 1.286899466156778151E-16, 0.000000000000000000, 1.000000000000000000 ) ) ;
#158 = VERTEX_POINT ( 'NONE', #833 ) ;
#159 = LINE ( 'NONE', #433, #142 ) ;
#160 = VERTEX_POINT ( 'NONE', #421 ) ;
#161 = LINE ( 'NONE', #320, #368 ) ;
#162 = VECTOR ( 'NONE', #763, 1000.000000000000000 ) ;
#163 = VECTOR ( 'NONE', #489, 1000.000000000000000 ) ;
#164 = EDGE_CURVE ( 'NONE', #631, #266, #496, .T. ) ;
#165 = LINE ( 'NONE', #113, #764 ) ;
#166 = VERTEX_POINT ( 'NONE', #73 ) ;
#167 = CARTESIAN_POINT ( 'NONE',  ( 24.73539397255677841, 15.00000000000000000, 154.9714043947262780 ) ) ;
#168 = ORIENTED_EDGE ( 'NONE', *, *, #587, .F. ) ;
#169 = PLANE ( 'NONE',  #287 ) ;
#170 = ORIENTED_EDGE ( 'NONE', *, *, #580, .F. ) ;
#171 = VERTEX_POINT ( 'NONE', #824 ) ;
#172 = EDGE_CURVE ( 'NONE', #103, #722, #87, .T. ) ;
#173 = CARTESIAN_POINT ( 'NONE',  ( 24.73539397255677841, 15.00000000000000000, 154.9714043947262780 ) ) ;
#174 = CIRCLE ( 'NONE', #435, 3.000000000000000888 ) ;
#175 = CIRCLE ( 'NONE', #24, 3.000000000000002665 ) ;
#176 = CARTESIAN_POINT ( 'NONE',  ( 30.58401425420946396, 15.00000000000000000, 20.37688537445799852 ) ) ;
#177 = ORIENTED_EDGE ( 'NONE', *, *, #372, .T. ) ;
#178 = LINE ( 'NONE', #448, #490 ) ;
#179 = DIRECTION ( 'NONE',  ( -0.000000000000000000, 1.000000000000000000, -0.000000000000000000 ) ) ;
#180 = AXIS2_PLACEMENT_3D ( 'NONE', #615, #480, #290 ) ;
#181 = ORIENTED_EDGE ( 'NONE', *, *, #326, .T. ) ;
#182 = DIRECTION ( 'NONE',  ( -3.803459357972635784E-32, 1.000000000000000000, -2.955521746645339351E-16 ) ) ;
#183 = ORIENTED_EDGE ( 'NONE', *, *, #438, .T. ) ;
#184 = CARTESIAN_POINT ( 'NONE',  ( 0.000000000000000000, 0.000000000000000000, 0.000000000000000000 ) ) ;
#185 = DIRECTION ( 'NONE',  ( 0.000000000000000000, -1.000000000000000000, 0.000000000000000000 ) ) ;
#186 = CIRCLE ( 'NONE', #304, 3.000000000000002665 ) ;
#187 = EDGE_CURVE ( 'NONE', #486, #711, #571, .T. ) ;
#188 = VERTEX_POINT ( 'NONE', #689 ) ;
#189 = DIRECTION ( 'NONE',  ( -0.000000000000000000, -1.000000000000000000, -0.000000000000000000 ) ) ;
#190 = ORIENTED_EDGE ( 'NONE', *, *, #289, .T. ) ;
#191 = CARTESIAN_POINT ( 'NONE',  ( 4.735393972556790843, 0.000000000000000000, 173.2689847742097982 ) ) ;
#192 = PRODUCT_DEFINITION_SHAPE ( 'NONE', 'NONE',  #647 ) ;
#193 = CARTESIAN_POINT ( 'NONE',  ( 16.73539397255682104, 0.000000000000000000, 181.9714043947262780 ) ) ;
#194 = EDGE_CURVE ( 'NONE', #69, #481, #692, .T. ) ;
#195 = DIRECTION ( 'NONE',  ( -0.7123596848290351113, 0.000000000000000000, 0.7018145619964561988 ) ) ;
#196 = ORIENTED_EDGE ( 'NONE', *, *, #88, .T. ) ;
#197 =( LENGTH_UNIT ( ) NAMED_UNIT ( * ) SI_UNIT ( .MILLI., .METRE. ) );
#198 = DIRECTION ( 'NONE',  ( 0.000000000000000000, -0.000000000000000000, 1.000000000000000000 ) ) ;
#199 = VERTEX_POINT ( 'NONE', #630 ) ;
#200 = CARTESIAN_POINT ( 'NONE',  ( 24.73539397255682104, 15.00000000000000000, 181.9714043947262780 ) ) ;
#201 = ORIENTED_EDGE ( 'NONE', *, *, #704, .F. ) ;
#202 = DIRECTION ( 'NONE',  ( 1.000000000000000000, 0.000000000000000000, 0.000000000000000000 ) ) ;
#203 = VECTOR ( 'NONE', #590, 1000.000000000000000 ) ;
#204 = DIRECTION ( 'NONE',  ( 0.000000000000000000, 0.000000000000000000, 1.000000000000000000 ) ) ;
#205 = AXIS2_PLACEMENT_3D ( 'NONE', #748, #318, #665 ) ;
#206 = FILL_AREA_STYLE ('',( #84 ) ) ;
#207 = ORIENTED_EDGE ( 'NONE', *, *, #468, .F. ) ;
#208 = EDGE_CURVE ( 'NONE', #27, #631, #533, .T. ) ;
#209 = DIRECTION ( 'NONE',  ( 1.286899466156778151E-16, 7.492070160219495271E-15, 1.000000000000000000 ) ) ;
#210 = AXIS2_PLACEMENT_3D ( 'NONE', #6, #124, #396 ) ;
#211 = MANIFOLD_SOLID_BREP ( 'Cut-Extrude4', #230 ) ;
#212 = PLANE ( 'NONE',  #114 ) ;
#213 = SURFACE_STYLE_USAGE ( .BOTH. , #757 ) ;
#214 = VECTOR ( 'NONE', #258, 1000.000000000000000 ) ;
#215 = CARTESIAN_POINT ( 'NONE',  ( 24.73539397255677841, 0.000000000000000000, 154.9714043947262780 ) ) ;
#216 = EDGE_CURVE ( 'NONE', #508, #188, #627, .T. ) ;
#217 = EDGE_LOOP ( 'NONE', ( #559, #410 ) ) ;
#218 = FACE_OUTER_BOUND ( 'NONE', #107, .T. ) ;
#219 = EDGE_CURVE ( 'NONE', #685, #278, #548, .T. ) ;
#220 = FACE_OUTER_BOUND ( 'NONE', #225, .T. ) ;
#221 = ORIENTED_EDGE ( 'NONE', *, *, #427, .F. ) ;
#222 = LINE ( 'NONE', #560, #686 ) ;
#223 = LINE ( 'NONE', #154, #506 ) ;
#224 = AXIS2_PLACEMENT_3D ( 'NONE', #694, #553, #414 ) ;
#225 = EDGE_LOOP ( 'NONE', ( #91, #21, #306, #201, #645, #603, #451, #12 ) ) ;
#226 = LINE ( 'NONE', #31, #55 ) ;
#227 = FACE_OUTER_BOUND ( 'NONE', #736, .T. ) ;
#228 = CARTESIAN_POINT ( 'NONE',  ( 20.73658061723904211, 15.00000000000000000, 181.9714043947262780 ) ) ;
#229 = EDGE_CURVE ( 'NONE', #251, #143, #851, .T. ) ;
#230 = CLOSED_SHELL ( 'NONE', ( #241, #807, #417, #66, #819, #106, #16, #2, #735, #854, #795, #95, #146, #354, #791, #607, #388, #574, #677, #633, #497, #149, #670, #99 ) ) ;
#231 = ORIENTED_EDGE ( 'NONE', *, *, #28, .F. ) ;
#232 = AXIS2_PLACEMENT_3D ( 'NONE', #577, #369, #362 ) ;
#233 = CARTESIAN_POINT ( 'NONE',  ( 8.420984155169891849, 1.999999999997096101, 138.6569945773395602 ) ) ;
#234 = EDGE_CURVE ( 'NONE', #654, #685, #36, .T. ) ;
#235 = DIRECTION ( 'NONE',  ( -0.000000000000000000, 1.000000000000000000, -0.000000000000000000 ) ) ;
#236 = ORIENTED_EDGE ( 'NONE', *, *, #660, .F. ) ;
#237 = DIRECTION ( 'NONE',  ( -0.7071067811865513475, 0.000000000000000000, -0.7071067811865437980 ) ) ;
#238 = ORIENTED_EDGE ( 'NONE', *, *, #234, .F. ) ;
#239 = CARTESIAN_POINT ( 'NONE',  ( -15.26460602744324646, 15.00000000000000000, 1.253254279986792952 ) ) ;
#240 = VECTOR ( 'NONE', #53, 1000.000000000000000 ) ;
#241 = ADVANCED_FACE ( 'NONE', ( #511 ), #358, .F. ) ;
#242 = ORIENTED_EDGE ( 'NONE', *, *, #38, .F. ) ;
#243 = CYLINDRICAL_SURFACE ( 'NONE', #381, 3.000000000000002665 ) ;
#244 = CARTESIAN_POINT ( 'NONE',  ( 8.420984155169835006, 1.999999999997096101, 42.21183419698265737 ) ) ;
#245 = ORIENTED_EDGE ( 'NONE', *, *, #253, .T. ) ;
#246 = CARTESIAN_POINT ( 'NONE',  ( -15.26460602744322159, 15.00000000000000000, 189.9714043947263065 ) ) ;
#247 = DIRECTION ( 'NONE',  ( 0.000000000000000000, -1.000000000000000000, 0.000000000000000000 ) ) ;
#248 = CIRCLE ( 'NONE', #296, 8.000000000000007105 ) ;
#249 = EDGE_LOOP ( 'NONE', ( #231, #100 ) ) ;
#250 = LINE ( 'NONE', #804, #428 ) ;
#251 = VERTEX_POINT ( 'NONE', #567 ) ;
#252 = DIRECTION ( 'NONE',  ( 0.000000000000000000, 1.000000000000000000, 0.000000000000000000 ) ) ;
#253 = EDGE_CURVE ( 'NONE', #273, #143, #302, .T. ) ;
#254 = DIRECTION ( 'NONE',  ( -0.7071067811865513475, 0.000000000000000000, -0.7071067811865437980 ) ) ;
#255 = ORIENTED_EDGE ( 'NONE', *, *, #299, .T. ) ;
#256 = CARTESIAN_POINT ( 'NONE',  ( 4.735393972556790843, 13.11398119160505793, 170.2689847742097982 ) ) ;
#257 = VERTEX_POINT ( 'NONE', #668 ) ;
#258 = DIRECTION ( 'NONE',  ( 1.324889058841013486E-16, 0.000000000000000000, 1.000000000000000000 ) ) ;
#259 = EDGE_CURVE ( 'NONE', #754, #374, #175, .T. ) ;
#260 = CARTESIAN_POINT ( 'NONE',  ( 24.73539397255682104, 0.000000000000000000, 181.9714043947262780 ) ) ;
#261 = AXIS2_PLACEMENT_3D ( 'NONE', #90, #33, #298 ) ;
#262 = ORIENTED_EDGE ( 'NONE', *, *, #713, .T. ) ;
#263 = FACE_OUTER_BOUND ( 'NONE', #458, .T. ) ;
#264 = EDGE_LOOP ( 'NONE', ( #532, #156, #363, #430, #65, #821, #41, #816, #534, #356 ) ) ;
#265 = PLANE ( 'NONE',  #210 ) ;
#266 = VERTEX_POINT ( 'NONE', #788 ) ;
#267 = CARTESIAN_POINT ( 'NONE',  ( 4.735393972556790843, 15.00000000000000000, 173.2689847742097982 ) ) ;
#268 = ORIENTED_EDGE ( 'NONE', *, *, #856, .F. ) ;
#269 = CARTESIAN_POINT ( 'NONE',  ( 4.735393972556790843, 0.000000000000000000, 176.2689847742097982 ) ) ;
#270 = CARTESIAN_POINT ( 'NONE',  ( 7.205569560582882893, 1.275464723904470246E-14, 174.9714043947264202 ) ) ;
#271 = EDGE_CURVE ( 'NONE', #611, #266, #165, .T. ) ;
#272 = DIRECTION ( 'NONE',  ( 5.935588108461891454E-16, 0.000000000000000000, 1.000000000000000000 ) ) ;
#273 = VERTEX_POINT ( 'NONE', #387 ) ;
#274 = LINE ( 'NONE', #550, #110 ) ;
#275 = DIRECTION ( 'NONE',  ( -1.541976423090495633E-15, 0.000000000000000000, -1.000000000000000000 ) ) ;
#276 = VECTOR ( 'NONE', #840, 1000.000000000000000 ) ;
#277 =( NAMED_UNIT ( * ) PLANE_ANGLE_UNIT ( ) SI_UNIT ( $, .RADIAN. ) );
#278 = VERTEX_POINT ( 'NONE', #54 ) ;
#279 = ORIENTED_EDGE ( 'NONE', *, *, #376, .T. ) ;
#280 = CARTESIAN_POINT ( 'NONE',  ( -3.982756142182843462, 15.00000000000000000, -10.02859560527365979 ) ) ;
#281 = APPLICATION_CONTEXT ( 'automotive_design' ) ;
#282 = ORIENTED_EDGE ( 'NONE', *, *, #700, .F. ) ;
#283 = CARTESIAN_POINT ( 'NONE',  ( 8.420984155169891849, 13.11398119160504905, 138.6569945773395602 ) ) ;
#284 = EDGE_CURVE ( 'NONE', #868, #650, #29, .T. ) ;
#285 = CARTESIAN_POINT ( 'NONE',  ( 20.73658061723904211, 0.000000000000000000, 30.07854658845301898 ) ) ;
#286 = ORIENTED_EDGE ( 'NONE', *, *, #28, .T. ) ;
#287 = AXIS2_PLACEMENT_3D ( 'NONE', #375, #445, #102 ) ;
#288 = CARTESIAN_POINT ( 'NONE',  ( 4.735393972556790843, 0.000000000000000000, 170.2689847742097982 ) ) ;
#289 = EDGE_CURVE ( 'NONE', #584, #666, #385, .T. ) ;
#290 = DIRECTION ( 'NONE',  ( 0.000000000000000000, 0.000000000000000000, 1.000000000000000000 ) ) ;
#291 = ORIENTED_EDGE ( 'NONE', *, *, #658, .F. ) ;
#292 = CARTESIAN_POINT ( 'NONE',  ( 4.735393972556790843, 0.000000000000000000, 173.2689847742097982 ) ) ;
#293 = DIRECTION ( 'NONE',  ( -1.000000000000000000, -0.000000000000000000, 1.286899466156778151E-16 ) ) ;
#294 = PRESENTATION_LAYER_ASSIGNMENT (  '', '', ( #642 ) ) ;
#295 = ORIENTED_EDGE ( 'NONE', *, *, #538, .F. ) ;
#296 = AXIS2_PLACEMENT_3D ( 'NONE', #431, #92, #365 ) ;
#297 = DIRECTION ( 'NONE',  ( 0.000000000000000000, -1.000000000000000000, 0.000000000000000000 ) ) ;
#298 = DIRECTION ( 'NONE',  ( 0.7071067811865459074, 0.000000000000000000, -0.7071067811865491270 ) ) ;
#299 = EDGE_CURVE ( 'NONE', #481, #273, #847, .T. ) ;
#300 = ORIENTED_EDGE ( 'NONE', *, *, #755, .T. ) ;
#301 = CARTESIAN_POINT ( 'NONE',  ( 16.73539397255682104, 15.00000000000000000, 181.9714043947262780 ) ) ;
#302 = LINE ( 'NONE', #808, #485 ) ;
#303 = EDGE_LOOP ( 'NONE', ( #605, #690, #745, #377 ) ) ;
#304 = AXIS2_PLACEMENT_3D ( 'NONE', #552, #678, #406 ) ;
#305 = PLANE ( 'NONE',  #644 ) ;
#306 = ORIENTED_EDGE ( 'NONE', *, *, #510, .F. ) ;
#307 = DIRECTION ( 'NONE',  ( 0.000000000000000000, 1.000000000000000000, 0.000000000000000000 ) ) ;
#308 = EDGE_CURVE ( 'NONE', #868, #199, #576, .T. ) ;
#309 = ORIENTED_EDGE ( 'NONE', *, *, #836, .T. ) ;
#310 = ORIENTED_EDGE ( 'NONE', *, *, #172, .F. ) ;
#311 = FACE_OUTER_BOUND ( 'NONE', #636, .T. ) ;
#312 = UNCERTAINTY_MEASURE_WITH_UNIT (LENGTH_MEASURE( 1.000000000000000082E-05 ), #621, 'distance_accuracy_value', 'NONE');
#313 = ORIENTED_EDGE ( 'NONE', *, *, #164, .T. ) ;
#314 = VERTEX_POINT ( 'NONE', #662 ) ;
#315 = VECTOR ( 'NONE', #333, 1000.000000000000000 ) ;
#316 = CARTESIAN_POINT ( 'NONE',  ( 20.73658061723904211, 13.11398119160500997, 4.757868120028705405 ) ) ;
#317 = DIRECTION ( 'NONE',  ( 0.000000000000000000, 0.000000000000000000, 1.000000000000000000 ) ) ;
#318 = DIRECTION ( 'NONE',  ( -0.000000000000000000, -1.000000000000000000, -0.000000000000000000 ) ) ;
#319 = ORIENTED_EDGE ( 'NONE', *, *, #229, .T. ) ;
#320 = CARTESIAN_POINT ( 'NONE',  ( 8.420984155169835006, 15.00000000000000000, 42.21183419698265027 ) ) ;
#321 = CARTESIAN_POINT ( 'NONE',  ( 30.73539397255677841, 13.11398119160505971, 174.9714043947263065 ) ) ;
#322 = AXIS2_PLACEMENT_3D ( 'NONE', #575, #637, #569 ) ;
#323 = VERTEX_POINT ( 'NONE', #591 ) ;
#324 = PLANE ( 'NONE',  #860 ) ;
#325 = ORIENTED_EDGE ( 'NONE', *, *, #62, .F. ) ;
#326 = EDGE_CURVE ( 'NONE', #143, #841, #780, .T. ) ;
#327 = LINE ( 'NONE', #687, #416 ) ;
#328 = PRODUCT ( 'LatticeDroneArmV1', 'LatticeDroneArmV1', '', ( #741 ) ) ;
#329 = LINE ( 'NONE', #867, #155 ) ;
#330 = ORIENTED_EDGE ( 'NONE', *, *, #18, .F. ) ;
#331 = SHAPE_DEFINITION_REPRESENTATION ( #192, #495 ) ;
#332 = LINE ( 'NONE', #608, #557 ) ;
#333 = DIRECTION ( 'NONE',  ( -0.000000000000000000, -1.000000000000000000, -0.000000000000000000 ) ) ;
#334 = ORIENTED_EDGE ( 'NONE', *, *, #869, .F. ) ;
#335 = CARTESIAN_POINT ( 'NONE',  ( -15.26460602744322159, 0.000000000000000000, 189.9714043947263065 ) ) ;
#336 = DIRECTION ( 'NONE',  ( 0.000000000000000000, 1.000000000000000000, 0.000000000000000000 ) ) ;
#337 = EDGE_CURVE ( 'NONE', #151, #880, #526, .T. ) ;
#338 = CYLINDRICAL_SURFACE ( 'NONE', #205, 8.000000000000007105 ) ;
#339 = CARTESIAN_POINT ( 'NONE',  ( 8.420984155169835006, 15.00000000000000000, 42.21183419698265027 ) ) ;
#340 = ORIENTED_EDGE ( 'NONE', *, *, #219, .F. ) ;
#341 = CARTESIAN_POINT ( 'NONE',  ( 20.73658061723904211, 15.00000000000000000, 30.07854658845301898 ) ) ;
#342 = VECTOR ( 'NONE', #706, 1000.000000000000000 ) ;
#343 = VERTEX_POINT ( 'NONE', #843 ) ;
#344 = VECTOR ( 'NONE', #373, 1000.000000000000000 ) ;
#345 = CARTESIAN_POINT ( 'NONE',  ( 8.420984155169891849, 15.00000000000000000, 138.6569945773395602 ) ) ;
#346 = CIRCLE ( 'NONE', #48, 3.000000000000002665 ) ;
#347 = VECTOR ( 'NONE', #756, 1000.000000000000000 ) ;
#348 = DIRECTION ( 'NONE',  ( 1.000000000000000000, 0.000000000000000000, -3.579015818096174421E-15 ) ) ;
#349 = EDGE_CURVE ( 'NONE', #581, #654, #223, .T. ) ;
#350 = ORIENTED_EDGE ( 'NONE', *, *, #326, .F. ) ;
#351 = PLANE ( 'NONE',  #830 ) ;
#352 = LINE ( 'NONE', #425, #822 ) ;
#353 =( GEOMETRIC_REPRESENTATION_CONTEXT ( 3 ) GLOBAL_UNCERTAINTY_ASSIGNED_CONTEXT ( ( #312 ) ) GLOBAL_UNIT_ASSIGNED_CONTEXT ( ( #621, #277, #828 ) ) REPRESENTATION_CONTEXT ( 'NONE', 'WORKASPACE' ) );
#354 = ADVANCED_FACE ( 'NONE', ( #429 ), #710, .F. ) ;
#355 = LINE ( 'NONE', #632, #525 ) ;
#356 = ORIENTED_EDGE ( 'NONE', *, *, #856, .T. ) ;
#357 = CARTESIAN_POINT ( 'NONE',  ( -15.26460602744324646, 0.000000000000000000, 1.253254279986792952 ) ) ;
#358 = CYLINDRICAL_SURFACE ( 'NONE', #71, 3.000000000000000888 ) ;
#359 = ORIENTED_EDGE ( 'NONE', *, *, #555, .T. ) ;
#360 = FACE_OUTER_BOUND ( 'NONE', #786, .T. ) ;
#361 = EDGE_CURVE ( 'NONE', #663, #508, #572, .T. ) ;
#362 = DIRECTION ( 'NONE',  ( 0.000000000000000000, 0.000000000000000000, 1.000000000000000000 ) ) ;
#363 = ORIENTED_EDGE ( 'NONE', *, *, #538, .T. ) ;
#364 = AXIS2_PLACEMENT_3D ( 'NONE', #292, #566, #367 ) ;
#365 = DIRECTION ( 'NONE',  ( 0.000000000000000000, 0.000000000000000000, 1.000000000000000000 ) ) ;
#366 = DIRECTION ( 'NONE',  ( -1.155259554719829739E-29, 1.000000000000000000, -7.492070160219495271E-15 ) ) ;
#367 = DIRECTION ( 'NONE',  ( 0.000000000000000000, 0.000000000000000000, 1.000000000000000000 ) ) ;
#368 = VECTOR ( 'NONE', #657, 1000.000000000000000 ) ;
#369 = DIRECTION ( 'NONE',  ( 0.000000000000000000, 1.000000000000000000, 0.000000000000000000 ) ) ;
#370 = ORIENTED_EDGE ( 'NONE', *, *, #844, .T. ) ;
#371 = VECTOR ( 'NONE', #247, 1000.000000000000000 ) ;
#372 = EDGE_CURVE ( 'NONE', #103, #166, #159, .T. ) ;
#373 = DIRECTION ( 'NONE',  ( -1.000000000000000000, -0.000000000000000000, 1.286899466156778151E-16 ) ) ;
#374 = VERTEX_POINT ( 'NONE', #94 ) ;
#375 = CARTESIAN_POINT ( 'NONE',  ( 8.420984155169891849, 15.00000000000000000, 138.6569945773395602 ) ) ;
#376 = EDGE_CURVE ( 'NONE', #486, #314, #648, .T. ) ;
#377 = ORIENTED_EDGE ( 'NONE', *, *, #869, .T. ) ;
#378 = ORIENTED_EDGE ( 'NONE', *, *, #372, .F. ) ;
#379 = AXIS2_PLACEMENT_3D ( 'NONE', #141, #418, #348 ) ;
#380 = CARTESIAN_POINT ( 'NONE',  ( 24.73539397255677841, 15.00000000000000000, 154.9714043947262780 ) ) ;
#381 = AXIS2_PLACEMENT_3D ( 'NONE', #191, #612, #461 ) ;
#382 = ORIENTED_EDGE ( 'NONE', *, *, #50, .F. ) ;
#383 = DIRECTION ( 'NONE',  ( 0.000000000000000000, 0.000000000000000000, 1.000000000000000000 ) ) ;
#384 = VERTEX_POINT ( 'NONE', #556 ) ;
#385 = CIRCLE ( 'NONE', #878, 8.000000000000007105 ) ;
#386 = CARTESIAN_POINT ( 'NONE',  ( 4.735393972556790843, 1.999999999997095657, 170.2689847742097982 ) ) ;
#387 = CARTESIAN_POINT ( 'NONE',  ( -15.26460602744322337, 13.11398119160505971, 174.9714043947263065 ) ) ;
#388 = ADVANCED_FACE ( 'NONE', ( #626, #1, #817 ), #212, .F. ) ;
#389 = CARTESIAN_POINT ( 'NONE',  ( 24.73539397255677841, 15.00000000000000000, 154.9714043947262780 ) ) ;
#390 = ORIENTED_EDGE ( 'NONE', *, *, #600, .F. ) ;
#391 = PLANE ( 'NONE',  #720 ) ;
#392 = LINE ( 'NONE', #63, #810 ) ;
#393 = ORIENTED_EDGE ( 'NONE', *, *, #438, .F. ) ;
#394 = CARTESIAN_POINT ( 'NONE',  ( -3.982756142182843462, 15.00000000000000000, -10.02859560527365979 ) ) ;
#395 = ORIENTED_EDGE ( 'NONE', *, *, #284, .F. ) ;
#396 = DIRECTION ( 'NONE',  ( 0.000000000000000000, -1.000000000000000000, 7.492070160219495271E-15 ) ) ;
#397 = AXIS2_PLACEMENT_3D ( 'NONE', #184, #606, #202 ) ;
#398 = CARTESIAN_POINT ( 'NONE',  ( 4.735393972556790843, 13.11398119160505971, 173.2689847742097982 ) ) ;
#399 = ORIENTED_EDGE ( 'NONE', *, *, #836, .F. ) ;
#400 = DIRECTION ( 'NONE',  ( -0.000000000000000000, 1.000000000000000000, -7.492070160219495271E-15 ) ) ;
#401 = EDGE_CURVE ( 'NONE', #666, #611, #487, .T. ) ;
#402 = DIRECTION ( 'NONE',  ( 0.000000000000000000, 0.000000000000000000, -1.000000000000000000 ) ) ;
#403 = CARTESIAN_POINT ( 'NONE',  ( 8.420984155169891849, 15.00000000000000000, 138.6569945773395602 ) ) ;
#404 = ORIENTED_EDGE ( 'NONE', *, *, #337, .F. ) ;
#405 = CARTESIAN_POINT ( 'NONE',  ( -15.26460602744324646, 1.999999999997095657, 4.757868120028709846 ) ) ;
#406 = DIRECTION ( 'NONE',  ( 0.000000000000000000, 0.000000000000000000, 1.000000000000000000 ) ) ;
#407 = MECHANICAL_DESIGN_GEOMETRIC_PRESENTATION_REPRESENTATION (  '', ( #642 ), #353 ) ;
#408 = VECTOR ( 'NONE', #494, 1000.000000000000000 ) ;
#409 = DIRECTION ( 'NONE',  ( 1.286899466156778151E-16, 0.000000000000000000, 1.000000000000000000 ) ) ;
#410 = ORIENTED_EDGE ( 'NONE', *, *, #127, .T. ) ;
#411 = APPLICATION_PROTOCOL_DEFINITION ( 'draft international standard', 'automotive_design', 1998, #281 ) ;
#412 = CARTESIAN_POINT ( 'NONE',  ( 2.265218384530699236, 13.11398119160505971, 174.9714043947264202 ) ) ;
#413 = EDGE_CURVE ( 'NONE', #384, #449, #76, .T. ) ;
#414 = DIRECTION ( 'NONE',  ( 0.000000000000000000, 0.000000000000000000, 1.000000000000000000 ) ) ;
#415 = CARTESIAN_POINT ( 'NONE',  ( 20.73658061723904211, 15.00000000000000000, -10.02859560527374860 ) ) ;
#416 = VECTOR ( 'NONE', #482, 1000.000000000000000 ) ;
#417 = ADVANCED_FACE ( 'NONE', ( #601 ), #876, .F. ) ;
#418 = DIRECTION ( 'NONE',  ( 3.579015818096174421E-15, -0.000000000000000000, 1.000000000000000000 ) ) ;
#419 = ORIENTED_EDGE ( 'NONE', *, *, #50, .T. ) ;
#420 = DIRECTION ( 'NONE',  ( 0.7123596848290351113, -2.074228200092899821E-16, -0.7018145619964561988 ) ) ;
#421 = CARTESIAN_POINT ( 'NONE',  ( 24.73539397255677841, 15.00000000000000000, 154.9714043947262780 ) ) ;
#422 = ORIENTED_EDGE ( 'NONE', *, *, #259, .F. ) ;
#423 = VECTOR ( 'NONE', #293, 1000.000000000000000 ) ;
#424 = CYLINDRICAL_SURFACE ( 'NONE', #364, 3.000000000000002665 ) ;
#425 = CARTESIAN_POINT ( 'NONE',  ( 8.420984155169891849, 0.000000000000000000, 138.6569945773395602 ) ) ;
#426 = PLANE ( 'NONE',  #798 ) ;
#427 = EDGE_CURVE ( 'NONE', #52, #343, #814, .T. ) ;
#428 = VECTOR ( 'NONE', #125, 1000.000000000000000 ) ;
#429 = FACE_OUTER_BOUND ( 'NONE', #444, .T. ) ;
#430 = ORIENTED_EDGE ( 'NONE', *, *, #172, .T. ) ;
#431 = CARTESIAN_POINT ( 'NONE',  ( 16.73539397255682104, 15.00000000000000000, 181.9714043947262780 ) ) ;
#432 = ORIENTED_EDGE ( 'NONE', *, *, #253, .F. ) ;
#433 = CARTESIAN_POINT ( 'NONE',  ( -15.26460602744324646, 15.00000000000000000, 1.253254279986792952 ) ) ;
#434 = ORIENTED_EDGE ( 'NONE', *, *, #543, .F. ) ;
#435 = AXIS2_PLACEMENT_3D ( 'NONE', #682, #336, #204 ) ;
#436 = CARTESIAN_POINT ( 'NONE',  ( -15.26460602744322159, 15.00000000000000000, 189.9714043947263065 ) ) ;
#437 = CARTESIAN_POINT ( 'NONE',  ( 4.735393972556790843, 0.000000000000000000, 176.2689847742097982 ) ) ;
#438 = EDGE_CURVE ( 'NONE', #374, #278, #67, .T. ) ;
#439 = ORIENTED_EDGE ( 'NONE', *, *, #139, .T. ) ;
#440 = CARTESIAN_POINT ( 'NONE',  ( 4.735393972556790843, 15.00000000000000000, 170.2689847742097982 ) ) ;
#441 = AXIS2_PLACEMENT_3D ( 'NONE', #623, #70, #9 ) ;
#442 = EDGE_CURVE ( 'NONE', #777, #650, #186, .T. ) ;
#443 = EDGE_CURVE ( 'NONE', #135, #841, #392, .T. ) ;
#444 = EDGE_LOOP ( 'NONE', ( #761, #378, #295, #4 ) ) ;
#445 = DIRECTION ( 'NONE',  ( -1.000000000000000000, 0.000000000000000000, 5.935588108461891454E-16 ) ) ;
#446 = EDGE_LOOP ( 'NONE', ( #522, #599, #774, #221 ) ) ;
#447 = COLOUR_RGB ( '',0.7921568627450980005, 0.8196078431372548767, 0.9333333333333333481 ) ;
#448 = CARTESIAN_POINT ( 'NONE',  ( 2.691715389677856507, 0.000000000000000000, 4.270150566522041835 ) ) ;
#449 = VERTEX_POINT ( 'NONE', #831 ) ;
#450 = DIRECTION ( 'NONE',  ( -0.7018145619964563098, 0.000000000000000000, -0.7123596848290352224 ) ) ;
#451 = ORIENTED_EDGE ( 'NONE', *, *, #337, .T. ) ;
#452 = VECTOR ( 'NONE', #409, 1000.000000000000000 ) ;
#453 = PLANE ( 'NONE',  #586 ) ;
#454 = EDGE_CURVE ( 'NONE', #475, #27, #537, .T. ) ;
#455 = CARTESIAN_POINT ( 'NONE',  ( 2.691715389677856507, 0.000000000000000000, 1.270150566522040503 ) ) ;
#456 = ORIENTED_EDGE ( 'NONE', *, *, #743, .T. ) ;
#457 = DIRECTION ( 'NONE',  ( 0.000000000000000000, 5.782411586589351722E-16, 1.000000000000000000 ) ) ;
#458 = EDGE_LOOP ( 'NONE', ( #520, #845, #578, #518 ) ) ;
#459 = VECTOR ( 'NONE', #108, 1000.000000000000000 ) ;
#460 = VECTOR ( 'NONE', #138, 1000.000000000000000 ) ;
#461 = DIRECTION ( 'NONE',  ( 0.000000000000000000, 0.000000000000000000, 1.000000000000000000 ) ) ;
#462 = DIRECTION ( 'NONE',  ( -0.000000000000000000, -0.000000000000000000, -1.000000000000000000 ) ) ;
#463 = LINE ( 'NONE', #680, #459 ) ;
#464 = ORIENTED_EDGE ( 'NONE', *, *, #442, .T. ) ;
#465 = DIRECTION ( 'NONE',  ( 0.7123596848290352224, -0.000000000000000000, -0.7018145619964561988 ) ) ;
#466 = PRODUCT_DEFINITION_CONTEXT ( 'detailed design', #698, 'design' ) ;
#467 = DIRECTION ( 'NONE',  ( -0.7123596848290351113, 0.000000000000000000, 0.7018145619964561988 ) ) ;
#468 = EDGE_CURVE ( 'NONE', #52, #628, #58, .T. ) ;
#469 = CARTESIAN_POINT ( 'NONE',  ( 8.420984155169835006, 13.11398119160502240, 42.21183419698265737 ) ) ;
#470 = ORIENTED_EDGE ( 'NONE', *, *, #43, .F. ) ;
#471 = CARTESIAN_POINT ( 'NONE',  ( 24.73539397255677841, 15.00000000000000000, 154.9714043947262780 ) ) ;
#472 = CARTESIAN_POINT ( 'NONE',  ( 8.420984155169891849, 15.00000000000000000, 138.6569945773395602 ) ) ;
#473 = AXIS2_PLACEMENT_3D ( 'NONE', #239, #516, #859 ) ;
#474 = DIRECTION ( 'NONE',  ( -1.000000000000000000, 0.000000000000000000, 8.673617379884023639E-16 ) ) ;
#475 = VERTEX_POINT ( 'NONE', #130 ) ;
#476 = APPLICATION_PROTOCOL_DEFINITION ( 'draft international standard', 'automotive_design', 1998, #698 ) ;
#477 = AXIS2_PLACEMENT_3D ( 'NONE', #776, #484, #23 ) ;
#478 = LINE ( 'NONE', #693, #762 ) ;
#479 = ORIENTED_EDGE ( 'NONE', *, *, #772, .F. ) ;
#480 = DIRECTION ( 'NONE',  ( 0.000000000000000000, 1.000000000000000000, 0.000000000000000000 ) ) ;
#481 = VERTEX_POINT ( 'NONE', #412 ) ;
#482 = DIRECTION ( 'NONE',  ( -0.000000000000000000, -1.000000000000000000, -0.000000000000000000 ) ) ;
#483 = VECTOR ( 'NONE', #157, 1000.000000000000000 ) ;
#484 = DIRECTION ( 'NONE',  ( 0.000000000000000000, 1.000000000000000000, 0.000000000000000000 ) ) ;
#485 = VECTOR ( 'NONE', #802, 1000.000000000000000 ) ;
#486 = VERTEX_POINT ( 'NONE', #614 ) ;
#487 = LINE ( 'NONE', #260, #738 ) ;
#488 = EDGE_CURVE ( 'NONE', #475, #151, #327, .T. ) ;
#489 = DIRECTION ( 'NONE',  ( -0.000000000000000000, -1.000000000000000000, -0.000000000000000000 ) ) ;
#490 = VECTOR ( 'NONE', #585, 1000.000000000000000 ) ;
#491 = ORIENTED_EDGE ( 'NONE', *, *, #284, .T. ) ;
#492 = DIRECTION ( 'NONE',  ( -5.935588108461891454E-16, -2.955521746645339351E-16, -1.000000000000000000 ) ) ;
#493 = LINE ( 'NONE', #769, #276 ) ;
#494 = DIRECTION ( 'NONE',  ( -1.541976423090495633E-15, 0.000000000000000000, -1.000000000000000000 ) ) ;
#495 = ADVANCED_BREP_SHAPE_REPRESENTATION ( 'LatticeDroneArmV1', ( #211, #397 ), #837 ) ;
#496 = LINE ( 'NONE', #558, #342 ) ;
#497 = ADVANCED_FACE ( 'NONE', ( #747 ), #265, .F. ) ;
#498 = DIRECTION ( 'NONE',  ( 0.000000000000000000, -1.000000000000000000, 0.000000000000000000 ) ) ;
#499 = EDGE_LOOP ( 'NONE', ( #512, #834, #126, #456 ) ) ;
#500 = PRODUCT_RELATED_PRODUCT_CATEGORY ( 'part', '', ( #328 ) ) ;
#501 = DIRECTION ( 'NONE',  ( 1.541976423090495831E-15, 0.000000000000000000, 1.000000000000000000 ) ) ;
#502 = ORIENTED_EDGE ( 'NONE', *, *, #723, .F. ) ;
#503 = CARTESIAN_POINT ( 'NONE',  ( 16.73539397255682104, 0.000000000000000000, 189.9714043947262780 ) ) ;
#504 = UNCERTAINTY_MEASURE_WITH_UNIT (LENGTH_MEASURE( 1.000000000000000082E-05 ), #197, 'distance_accuracy_value', 'NONE');
#505 = AXIS2_PLACEMENT_3D ( 'NONE', #176, #450, #739 ) ;
#506 = VECTOR ( 'NONE', #501, 1000.000000000000000 ) ;
#507 = DIRECTION ( 'NONE',  ( 0.000000000000000000, -0.000000000000000000, 1.000000000000000000 ) ) ;
#508 = VERTEX_POINT ( 'NONE', #341 ) ;
#509 = LINE ( 'NONE', #728, #240 ) ;
#510 = EDGE_CURVE ( 'NONE', #251, #188, #547, .T. ) ;
#511 = FACE_OUTER_BOUND ( 'NONE', #779, .T. ) ;
#512 = ORIENTED_EDGE ( 'NONE', *, *, #376, .F. ) ;
#513 = CARTESIAN_POINT ( 'NONE',  ( 2.691715389677856507, 15.00000000000000000, 4.270150566522041835 ) ) ;
#514 = EDGE_CURVE ( 'NONE', #475, #135, #332, .T. ) ;
#515 = VERTEX_POINT ( 'NONE', #542 ) ;
#516 = DIRECTION ( 'NONE',  ( 1.000000000000000000, 0.000000000000000000, -1.286899466156778151E-16 ) ) ;
#517 = ORIENTED_EDGE ( 'NONE', *, *, #454, .F. ) ;
#518 = ORIENTED_EDGE ( 'NONE', *, *, #38, .T. ) ;
#519 = LINE ( 'NONE', #173, #619 ) ;
#520 = ORIENTED_EDGE ( 'NONE', *, *, #14, .T. ) ;
#521 = DIRECTION ( 'NONE',  ( -0.000000000000000000, 1.000000000000000000, -0.000000000000000000 ) ) ;
#522 = ORIENTED_EDGE ( 'NONE', *, *, #468, .T. ) ;
#523 = EDGE_CURVE ( 'NONE', #314, #729, #174, .T. ) ;
#524 = CARTESIAN_POINT ( 'NONE',  ( 30.73539397255675354, 13.11398119160500997, 4.757868120028704517 ) ) ;
#525 = VECTOR ( 'NONE', #22, 1000.000000000000000 ) ;
#526 = LINE ( 'NONE', #871, #13 ) ;
#527 = VECTOR ( 'NONE', #366, 1000.000000000000000 ) ;
#528 = CARTESIAN_POINT ( 'NONE',  ( 24.73539397255677841, 13.11398119160505438, 154.9714043947262780 ) ) ;
#529 = EDGE_LOOP ( 'NONE', ( #370, #861 ) ) ;
#530 = DIRECTION ( 'NONE',  ( 0.000000000000000000, 0.000000000000000000, 1.000000000000000000 ) ) ;
#531 = CARTESIAN_POINT ( 'NONE',  ( 30.73539397255677841, 13.11398119160505971, 174.9714043947263065 ) ) ;
#532 = ORIENTED_EDGE ( 'NONE', *, *, #361, .F. ) ;
#533 = LINE ( 'NONE', #20, #726 ) ;
#534 = ORIENTED_EDGE ( 'NONE', *, *, #427, .T. ) ;
#535 = VECTOR ( 'NONE', #507, 1000.000000000000000 ) ;
#536 = CARTESIAN_POINT ( 'NONE',  ( 30.58401425420946396, 15.00000000000000000, 20.37688537445799852 ) ) ;
#537 = LINE ( 'NONE', #618, #40 ) ;
#538 = EDGE_CURVE ( 'NONE', #384, #103, #478, .T. ) ;
#539 = ORIENTED_EDGE ( 'NONE', *, *, #14, .F. ) ;
#540 = CARTESIAN_POINT ( 'NONE',  ( 30.58401425420946396, 15.00000000000000000, 20.37688537445799852 ) ) ;
#541 = ORIENTED_EDGE ( 'NONE', *, *, #563, .T. ) ;
#542 = CARTESIAN_POINT ( 'NONE',  ( 8.420984155169835006, 0.000000000000000000, 42.21183419698265027 ) ) ;
#543 = EDGE_CURVE ( 'NONE', #481, #171, #629, .T. ) ;
#544 = LINE ( 'NONE', #339, #315 ) ;
#545 = ORIENTED_EDGE ( 'NONE', *, *, #638, .T. ) ;
#546 = CARTESIAN_POINT ( 'NONE',  ( 20.73658061723904211, 0.000000000000000000, -10.02859560527374860 ) ) ;
#547 = LINE ( 'NONE', #72, #162 ) ;
#548 = LINE ( 'NONE', #531, #423 ) ;
#549 = ORIENTED_EDGE ( 'NONE', *, *, #783, .F. ) ;
#550 = CARTESIAN_POINT ( 'NONE',  ( 24.73539397255682104, 13.11398119160506148, 181.9714043947262780 ) ) ;
#551 = VECTOR ( 'NONE', #521, 1000.000000000000000 ) ;
#552 = CARTESIAN_POINT ( 'NONE',  ( 4.735393972556790843, 15.00000000000000000, 173.2689847742097982 ) ) ;
#553 = DIRECTION ( 'NONE',  ( -1.000000000000000000, 0.000000000000000000, 0.000000000000000000 ) ) ;
#554 = EDGE_LOOP ( 'NONE', ( #132, #656 ) ) ;
#555 = EDGE_CURVE ( 'NONE', #166, #812, #782, .T. ) ;
#556 = CARTESIAN_POINT ( 'NONE',  ( -3.982756142182843462, 15.00000000000000000, -10.02859560527365979 ) ) ;
#557 = VECTOR ( 'NONE', #402, 1000.000000000000000 ) ;
#558 = CARTESIAN_POINT ( 'NONE',  ( 8.420984155169891849, 15.00000000000000000, 138.6569945773395602 ) ) ;
#559 = ORIENTED_EDGE ( 'NONE', *, *, #308, .T. ) ;
#560 = CARTESIAN_POINT ( 'NONE',  ( 30.73539397255677841, 1.999999999997095657, 174.9714043947263917 ) ) ;
#561 = EDGE_LOOP ( 'NONE', ( #359, #589, #310, #177 ) ) ;
#562 = CARTESIAN_POINT ( 'NONE',  ( 30.73539397255675354, 1.999999999997095657, 4.757868120028704517 ) ) ;
#563 = EDGE_CURVE ( 'NONE', #199, #754, #646, .T. ) ;
#564 = DIRECTION ( 'NONE',  ( 0.000000000000000000, 5.782411586589351722E-16, 1.000000000000000000 ) ) ;
#565 = ORIENTED_EDGE ( 'NONE', *, *, #77, .F. ) ;
#566 = DIRECTION ( 'NONE',  ( -0.000000000000000000, 1.000000000000000000, -0.000000000000000000 ) ) ;
#567 = CARTESIAN_POINT ( 'NONE',  ( 20.73658061723904211, 13.11398119160500997, 4.757868120028704517 ) ) ;
#568 = ORIENTED_EDGE ( 'NONE', *, *, #88, .F. ) ;
#569 = DIRECTION ( 'NONE',  ( 0.000000000000000000, 0.000000000000000000, -1.000000000000000000 ) ) ;
#570 = ORIENTED_EDGE ( 'NONE', *, *, #234, .T. ) ;
#571 = CIRCLE ( 'NONE', #180, 3.000000000000000888 ) ;
#572 = LINE ( 'NONE', #228, #535 ) ;
#573 = ORIENTED_EDGE ( 'NONE', *, *, #229, .F. ) ;
#574 = ADVANCED_FACE ( 'NONE', ( #360 ), #712, .F. ) ;
#575 = CARTESIAN_POINT ( 'NONE',  ( 4.735393972556790843, 1.999999999997095657, 173.2689847742097982 ) ) ;
#576 = CIRCLE ( 'NONE', #232, 3.000000000000002665 ) ;
#577 = CARTESIAN_POINT ( 'NONE',  ( 4.735393972556790843, 0.000000000000000000, 173.2689847742097982 ) ) ;
#578 = ORIENTED_EDGE ( 'NONE', *, *, #454, .T. ) ;
#579 = CARTESIAN_POINT ( 'NONE',  ( 24.73539397255681038, 13.11398119160505971, 174.9714043947263065 ) ) ;
#580 = EDGE_CURVE ( 'NONE', #116, #188, #226, .T. ) ;
#581 = VERTEX_POINT ( 'NONE', #152 ) ;
#582 = FACE_BOUND ( 'NONE', #583, .T. ) ;
#583 = EDGE_LOOP ( 'NONE', ( #334, #147, #350, #432 ) ) ;
#584 = VERTEX_POINT ( 'NONE', #503 ) ;
#585 = DIRECTION ( 'NONE',  ( -0.000000000000000000, 1.000000000000000000, -0.000000000000000000 ) ) ;
#586 = AXIS2_PLACEMENT_3D ( 'NONE', #45, #870, #655 ) ;
#587 = EDGE_CURVE ( 'NONE', #171, #754, #93, .T. ) ;
#588 = AXIS2_PLACEMENT_3D ( 'NONE', #811, #131, #474 ) ;
#589 = ORIENTED_EDGE ( 'NONE', *, *, #688, .F. ) ;
#590 = DIRECTION ( 'NONE',  ( -0.000000000000000000, -1.000000000000000000, -0.000000000000000000 ) ) ;
#591 = CARTESIAN_POINT ( 'NONE',  ( 24.73539397255682104, 15.00000000000000000, 181.9714043947262780 ) ) ;
#592 = LINE ( 'NONE', #200, #825 ) ;
#593 = EDGE_LOOP ( 'NONE', ( #597, #858, #565, #545 ) ) ;
#594 = CARTESIAN_POINT ( 'NONE',  ( -15.26460602744322337, 1.999999999997096101, 174.9714043947264202 ) ) ;
#595 = VECTOR ( 'NONE', #297, 1000.000000000000000 ) ;
#596 = DIRECTION ( 'NONE',  ( -1.000000000000000000, -0.000000000000000000, 1.286899466156778151E-16 ) ) ;
#597 = ORIENTED_EDGE ( 'NONE', *, *, #660, .T. ) ;
#598 = DIRECTION ( 'NONE',  ( -0.7018145619964563098, 0.000000000000000000, -0.7123596848290352224 ) ) ;
#599 = ORIENTED_EDGE ( 'NONE', *, *, #649, .T. ) ;
#600 = EDGE_CURVE ( 'NONE', #654, #374, #222, .T. ) ;
#601 = FACE_OUTER_BOUND ( 'NONE', #809, .T. ) ;
#602 = VECTOR ( 'NONE', #307, 1000.000000000000000 ) ;
#603 = ORIENTED_EDGE ( 'NONE', *, *, #488, .T. ) ;
#604 = FACE_OUTER_BOUND ( 'NONE', #676, .T. ) ;
#605 = ORIENTED_EDGE ( 'NONE', *, *, #299, .F. ) ;
#606 = DIRECTION ( 'NONE',  ( 0.000000000000000000, 0.000000000000000000, 1.000000000000000000 ) ) ;
#607 = ADVANCED_FACE ( 'NONE', ( #835, #839, #771 ), #351, .T. ) ;
#608 = CARTESIAN_POINT ( 'NONE',  ( 20.73658061723904211, 1.999999999997095657, 4.757868120028704517 ) ) ;
#609 = EDGE_LOOP ( 'NONE', ( #838, #731, #262, #681 ) ) ;
#610 = DIRECTION ( 'NONE',  ( 0.7071067811865513475, 0.000000000000000000, 0.7071067811865436870 ) ) ;
#611 = VERTEX_POINT ( 'NONE', #215 ) ;
#612 = DIRECTION ( 'NONE',  ( -0.000000000000000000, 1.000000000000000000, -0.000000000000000000 ) ) ;
#613 = AXIS2_PLACEMENT_3D ( 'NONE', #765, #81, #564 ) ;
#614 = CARTESIAN_POINT ( 'NONE',  ( 2.691715389677856951, 0.000000000000000000, -1.729849433477959941 ) ) ;
#615 = CARTESIAN_POINT ( 'NONE',  ( 2.691715389677856507, 0.000000000000000000, 1.270150566522040503 ) ) ;
#616 = ORIENTED_EDGE ( 'NONE', *, *, #308, .F. ) ;
#617 = PLANE ( 'NONE',  #441 ) ;
#618 = CARTESIAN_POINT ( 'NONE',  ( 30.58401425420946396, 1.999999999997096101, 20.37688537445799852 ) ) ;
#619 = VECTOR ( 'NONE', #717, 1000.000000000000000 ) ;
#620 = EDGE_CURVE ( 'NONE', #257, #323, #248, .T. ) ;
#621 =( LENGTH_UNIT ( ) NAMED_UNIT ( * ) SI_UNIT ( .MILLI., .METRE. ) );
#622 = ORIENTED_EDGE ( 'NONE', *, *, #349, .T. ) ;
#623 = CARTESIAN_POINT ( 'NONE',  ( 8.420984155169891849, 15.00000000000000000, 138.6569945773395602 ) ) ;
#624 = AXIS2_PLACEMENT_3D ( 'NONE', #267, #820, #383 ) ;
#625 = VECTOR ( 'NONE', #823, 1000.000000000000000 ) ;
#626 = FACE_BOUND ( 'NONE', #529, .T. ) ;
#627 = LINE ( 'NONE', #17, #163 ) ;
#628 = VERTEX_POINT ( 'NONE', #849 ) ;
#629 = LINE ( 'NONE', #89, #595 ) ;
#630 = CARTESIAN_POINT ( 'NONE',  ( 4.735393972556790843, 0.000000000000000000, 170.2689847742097982 ) ) ;
#631 = VERTEX_POINT ( 'NONE', #233 ) ;
#632 = CARTESIAN_POINT ( 'NONE',  ( -3.982756142182843462, 0.000000000000000000, -10.02859560527365979 ) ) ;
#633 = ADVANCED_FACE ( 'NONE', ( #218 ), #426, .F. ) ;
#634 = FACE_OUTER_BOUND ( 'NONE', #593, .T. ) ;
#635 = CIRCLE ( 'NONE', #98, 3.000000000000000888 ) ;
#636 = EDGE_LOOP ( 'NONE', ( #796, #541, #168, #434, #727, #196, #464, #395 ) ) ;
#637 = DIRECTION ( 'NONE',  ( 0.000000000000000000, -1.000000000000000000, 0.000000000000000000 ) ) ;
#638 = EDGE_CURVE ( 'NONE', #663, #880, #640, .T. ) ;
#639 = DIRECTION ( 'NONE',  ( 0.000000000000000000, 0.000000000000000000, 1.000000000000000000 ) ) ;
#640 = LINE ( 'NONE', #415, #866 ) ;
#641 = ORIENTED_EDGE ( 'NONE', *, *, #208, .F. ) ;
#642 = STYLED_ITEM ( 'NONE', ( #134 ), #211 ) ;
#643 = DIRECTION ( 'NONE',  ( -1.000000000000000000, -0.000000000000000000, 1.286899466156778151E-16 ) ) ;
#644 = AXIS2_PLACEMENT_3D ( 'NONE', #524, #47, #801 ) ;
#645 = ORIENTED_EDGE ( 'NONE', *, *, #514, .F. ) ;
#646 = LINE ( 'NONE', #288, #715 ) ;
#647 = PRODUCT_DEFINITION ( 'UNKNOWN', '', #767, #466 ) ;
#648 = LINE ( 'NONE', #15, #625 ) ;
#649 = EDGE_CURVE ( 'NONE', #628, #116, #19, .T. ) ;
#650 = VERTEX_POINT ( 'NONE', #144 ) ;
#651 = AXIS2_PLACEMENT_3D ( 'NONE', #75, #252, #530 ) ;
#652 = LINE ( 'NONE', #111, #129 ) ;
#653 = VECTOR ( 'NONE', #596, 1000.000000000000000 ) ;
#654 = VERTEX_POINT ( 'NONE', #701 ) ;
#655 = DIRECTION ( 'NONE',  ( 1.541976423090495831E-15, 0.000000000000000000, 1.000000000000000000 ) ) ;
#656 = ORIENTED_EDGE ( 'NONE', *, *, #523, .F. ) ;
#657 = DIRECTION ( 'NONE',  ( -0.000000000000000000, -1.000000000000000000, -0.000000000000000000 ) ) ;
#658 = EDGE_CURVE ( 'NONE', #323, #160, #82, .T. ) ;
#659 = ORIENTED_EDGE ( 'NONE', *, *, #86, .T. ) ;
#660 = EDGE_CURVE ( 'NONE', #880, #449, #355, .T. ) ;
#661 = CARTESIAN_POINT ( 'NONE',  ( 2.691715389677856507, 15.00000000000000000, 1.270150566522040503 ) ) ;
#662 = CARTESIAN_POINT ( 'NONE',  ( 2.691715389677856951, 15.00000000000000000, -1.729849433477959941 ) ) ;
#663 = VERTEX_POINT ( 'NONE', #775 ) ;
#664 = VECTOR ( 'NONE', #862, 1000.000000000000000 ) ;
#665 = DIRECTION ( 'NONE',  ( 0.000000000000000000, 0.000000000000000000, -1.000000000000000000 ) ) ;
#666 = VERTEX_POINT ( 'NONE', #842 ) ;
#667 = DIRECTION ( 'NONE',  ( 1.000000000000000000, 0.000000000000000000, -8.673617379884023639E-16 ) ) ;
#668 = CARTESIAN_POINT ( 'NONE',  ( 16.73539397255682104, 15.00000000000000000, 189.9714043947262780 ) ) ;
#669 = ORIENTED_EDGE ( 'NONE', *, *, #216, .F. ) ;
#670 = ADVANCED_FACE ( 'NONE', ( #148 ), #424, .F. ) ;
#671 = CARTESIAN_POINT ( 'NONE',  ( 4.735393972556790843, 0.000000000000000000, 170.2689847742097982 ) ) ;
#672 = ORIENTED_EDGE ( 'NONE', *, *, #768, .T. ) ;
#673 = AXIS2_PLACEMENT_3D ( 'NONE', #562, #498, #35 ) ;
#674 = DIRECTION ( 'NONE',  ( -1.000000000000000000, -0.000000000000000000, 1.286899466156778151E-16 ) ) ;
#675 = LINE ( 'NONE', #671, #551 ) ;
#676 = EDGE_LOOP ( 'NONE', ( #46, #669, #268, #672 ) ) ;
#677 = ADVANCED_FACE ( 'NONE', ( #797 ), #305, .F. ) ;
#678 = DIRECTION ( 'NONE',  ( 0.000000000000000000, 1.000000000000000000, 0.000000000000000000 ) ) ;
#679 = ORIENTED_EDGE ( 'NONE', *, *, #688, .T. ) ;
#680 = CARTESIAN_POINT ( 'NONE',  ( 30.58401425420946396, 0.000000000000000000, 20.37688537445799852 ) ) ;
#681 = ORIENTED_EDGE ( 'NONE', *, *, #271, .T. ) ;
#682 = CARTESIAN_POINT ( 'NONE',  ( 2.691715389677856507, 15.00000000000000000, 1.270150566522040503 ) ) ;
#683 = ORIENTED_EDGE ( 'NONE', *, *, #208, .T. ) ;
#684 = DIRECTION ( 'NONE',  ( -0.7071067811865436870, 0.000000000000000000, 0.7071067811865513475 ) ) ;
#685 = VERTEX_POINT ( 'NONE', #579 ) ;
#686 = VECTOR ( 'NONE', #846, 1000.000000000000000 ) ;
#687 = CARTESIAN_POINT ( 'NONE',  ( 20.73658061723904211, 15.99999999999998579, 30.07854658845301898 ) ) ;
#688 = EDGE_CURVE ( 'NONE', #722, #812, #853, .T. ) ;
#689 = CARTESIAN_POINT ( 'NONE',  ( 20.73658061723904211, 13.11398119160501707, 30.07854658845301898 ) ) ;
#690 = ORIENTED_EDGE ( 'NONE', *, *, #543, .T. ) ;
#691 = FACE_OUTER_BOUND ( 'NONE', #805, .T. ) ;
#692 = CIRCLE ( 'NONE', #613, 3.000000000000002665 ) ;
#693 = CARTESIAN_POINT ( 'NONE',  ( -15.26460602744324646, 15.00000000000000000, 1.253254279986792952 ) ) ;
#694 = CARTESIAN_POINT ( 'NONE',  ( 20.73658061723904211, 15.99999999999998579, -10.02859560527374860 ) ) ;
#695 = ORIENTED_EDGE ( 'NONE', *, *, #523, .T. ) ;
#696 = VECTOR ( 'NONE', #133, 1000.000000000000000 ) ;
#697 = DIRECTION ( 'NONE',  ( 0.000000000000000000, 1.000000000000000000, 0.000000000000000000 ) ) ;
#698 = APPLICATION_CONTEXT ( 'automotive_design' ) ;
#699 = PLANE ( 'NONE',  #224 ) ;
#700 = EDGE_CURVE ( 'NONE', #160, #158, #519, .T. ) ;
#701 = CARTESIAN_POINT ( 'NONE',  ( 24.73539397255681038, 1.999999999997095657, 174.9714043947263917 ) ) ;
#702 = CARTESIAN_POINT ( 'NONE',  ( -15.26460602744324646, 15.00000000000000000, 1.253254279986792952 ) ) ;
#703 = ORIENTED_EDGE ( 'NONE', *, *, #713, .F. ) ;
#704 = EDGE_CURVE ( 'NONE', #135, #251, #96, .T. ) ;
#705 = CARTESIAN_POINT ( 'NONE',  ( 24.73539397255682104, 15.00000000000000000, 181.9714043947262780 ) ) ;
#706 = DIRECTION ( 'NONE',  ( -0.000000000000000000, -1.000000000000000000, -0.000000000000000000 ) ) ;
#707 = VECTOR ( 'NONE', #400, 1000.000000000000000 ) ;
#708 = DIRECTION ( 'NONE',  ( 0.000000000000000000, 2.955521746645339351E-16, 1.000000000000000000 ) ) ;
#709 = CIRCLE ( 'NONE', #624, 3.000000000000002665 ) ;
#710 = PLANE ( 'NONE',  #261 ) ;
#711 = VERTEX_POINT ( 'NONE', #105 ) ;
#712 = PLANE ( 'NONE',  #673 ) ;
#713 = EDGE_CURVE ( 'NONE', #581, #611, #864, .T. ) ;
#714 = DIRECTION ( 'NONE',  ( -0.000000000000000000, -1.000000000000000000, -0.000000000000000000 ) ) ;
#715 = VECTOR ( 'NONE', #778, 1000.000000000000000 ) ;
#716 = VERTEX_POINT ( 'NONE', #594 ) ;
#717 = DIRECTION ( 'NONE',  ( -0.000000000000000000, -1.000000000000000000, -0.000000000000000000 ) ) ;
#718 = DIRECTION ( 'NONE',  ( 0.000000000000000000, 1.000000000000000000, 0.000000000000000000 ) ) ;
#719 = ORIENTED_EDGE ( 'NONE', *, *, #758, .F. ) ;
#720 = AXIS2_PLACEMENT_3D ( 'NONE', #471, #806, #750 ) ;
#721 = LINE ( 'NONE', #724, #344 ) ;
#722 = VERTEX_POINT ( 'NONE', #246 ) ;
#723 = EDGE_CURVE ( 'NONE', #711, #729, #178, .T. ) ;
#724 = CARTESIAN_POINT ( 'NONE',  ( 30.73539397255677841, 1.999999999997095657, 174.9714043947263917 ) ) ;
#725 = ORIENTED_EDGE ( 'NONE', *, *, #219, .T. ) ;
#726 = VECTOR ( 'NONE', #272, 1000.000000000000000 ) ;
#727 = ORIENTED_EDGE ( 'NONE', *, *, #194, .F. ) ;
#728 = CARTESIAN_POINT ( 'NONE',  ( 24.73539397255677841, 1.999999999997096101, 154.9714043947262780 ) ) ;
#729 = VERTEX_POINT ( 'NONE', #513 ) ;
#730 = DIRECTION ( 'NONE',  ( -0.000000000000000000, 1.000000000000000000, -0.000000000000000000 ) ) ;
#731 = ORIENTED_EDGE ( 'NONE', *, *, #758, .T. ) ;
#732 = DIRECTION ( 'NONE',  ( 0.000000000000000000, 1.000000000000000000, 0.000000000000000000 ) ) ;
#733 = VECTOR ( 'NONE', #101, 1000.000000000000000 ) ;
#734 = CARTESIAN_POINT ( 'NONE',  ( 4.735393972556790843, 1.999999999997095657, 173.2689847742097982 ) ) ;
#735 = ADVANCED_FACE ( 'NONE', ( #787 ), #453, .F. ) ;
#736 = EDGE_LOOP ( 'NONE', ( #190, #470, #803, #419 ) ) ;
#737 = AXIS2_PLACEMENT_3D ( 'NONE', #389, #684, #610 ) ;
#738 = VECTOR ( 'NONE', #275, 1000.000000000000000 ) ;
#739 = DIRECTION ( 'NONE',  ( -0.7123596848290351113, 0.000000000000000000, 0.7018145619964561988 ) ) ;
#740 = EDGE_LOOP ( 'NONE', ( #300, #382, #37, #679 ) ) ;
#741 = PRODUCT_CONTEXT ( 'NONE', #281, 'mechanical' ) ;
#742 = CARTESIAN_POINT ( 'NONE',  ( 30.73539397255675354, 13.11398119160500997, 4.757868120028704517 ) ) ;
#743 = EDGE_CURVE ( 'NONE', #729, #314, #635, .T. ) ;
#744 = FACE_OUTER_BOUND ( 'NONE', #609, .T. ) ;
#745 = ORIENTED_EDGE ( 'NONE', *, *, #783, .T. ) ;
#746 = LINE ( 'NONE', #123, #707 ) ;
#747 = FACE_OUTER_BOUND ( 'NONE', #303, .T. ) ;
#748 = CARTESIAN_POINT ( 'NONE',  ( 16.73539397255682104, 15.00000000000000000, 181.9714043947262780 ) ) ;
#749 = ORIENTED_EDGE ( 'NONE', *, *, #510, .T. ) ;
#750 = DIRECTION ( 'NONE',  ( 0.7071067811865513475, 0.000000000000000000, 0.7071067811865436870 ) ) ;
#751 = DIRECTION ( 'NONE',  ( -0.000000000000000000, 1.000000000000000000, -0.000000000000000000 ) ) ;
#752 = CIRCLE ( 'NONE', #651, 3.000000000000000888 ) ;
#753 = FACE_OUTER_BOUND ( 'NONE', #740, .T. ) ;
#754 = VERTEX_POINT ( 'NONE', #386 ) ;
#755 = EDGE_CURVE ( 'NONE', #812, #584, #652, .T. ) ;
#756 = DIRECTION ( 'NONE',  ( -0.000000000000000000, -1.000000000000000000, -0.000000000000000000 ) ) ;
#757 = SURFACE_SIDE_STYLE ('',( #78 ) ) ;
#758 = EDGE_CURVE ( 'NONE', #631, #581, #509, .T. ) ;
#759 = ORIENTED_EDGE ( 'NONE', *, *, #139, .F. ) ;
#760 =( NAMED_UNIT ( * ) PLANE_ANGLE_UNIT ( ) SI_UNIT ( $, .RADIAN. ) );
#761 = ORIENTED_EDGE ( 'NONE', *, *, #62, .T. ) ;
#762 = VECTOR ( 'NONE', #85, 1000.000000000000000 ) ;
#763 = DIRECTION ( 'NONE',  ( 0.000000000000000000, 2.955521746645339351E-16, 1.000000000000000000 ) ) ;
#764 = VECTOR ( 'NONE', #254, 1000.000000000000000 ) ;
#765 = CARTESIAN_POINT ( 'NONE',  ( 4.735393972556790843, 13.11398119160505971, 173.2689847742097982 ) ) ;
#766 = CARTESIAN_POINT ( 'NONE',  ( 30.73539397255675354, 13.11398119160500997, 4.757868120028704517 ) ) ;
#767 = PRODUCT_DEFINITION_FORMATION_WITH_SPECIFIED_SOURCE ( 'ANY', '', #328, .NOT_KNOWN. ) ;
#768 = EDGE_CURVE ( 'NONE', #343, #116, #161, .T. ) ;
#769 = CARTESIAN_POINT ( 'NONE',  ( -15.26460602744322159, 15.00000000000000000, 189.9714043947263065 ) ) ;
#770 = VECTOR ( 'NONE', #235, 1000.000000000000000 ) ;
#771 = FACE_OUTER_BOUND ( 'NONE', #264, .T. ) ;
#772 = EDGE_CURVE ( 'NONE', #160, #52, #39, .T. ) ;
#773 = CARTESIAN_POINT ( 'NONE',  ( 20.73658061723904211, 1.999999999997096101, 4.757868120028705405 ) ) ;
#774 = ORIENTED_EDGE ( 'NONE', *, *, #768, .F. ) ;
#775 = CARTESIAN_POINT ( 'NONE',  ( 20.73658061723904211, 15.00000000000000000, -10.02859560527374860 ) ) ;
#776 = CARTESIAN_POINT ( 'NONE',  ( 4.735393972556790843, 0.000000000000000000, 173.2689847742097982 ) ) ;
#777 = VERTEX_POINT ( 'NONE', #440 ) ;
#778 = DIRECTION ( 'NONE',  ( -0.000000000000000000, 1.000000000000000000, -0.000000000000000000 ) ) ;
#779 = EDGE_LOOP ( 'NONE', ( #104, #279, #695, #502 ) ) ;
#780 = LINE ( 'NONE', #865, #371 ) ;
#781 = ORIENTED_EDGE ( 'NONE', *, *, #259, .T. ) ;
#782 = LINE ( 'NONE', #357, #483 ) ;
#783 = EDGE_CURVE ( 'NONE', #171, #716, #721, .T. ) ;
#784 = AXIS2_PLACEMENT_3D ( 'NONE', #879, #730, #56 ) ;
#785 = DIRECTION ( 'NONE',  ( 0.000000000000000000, 0.000000000000000000, -1.000000000000000000 ) ) ;
#786 = EDGE_LOOP ( 'NONE', ( #549, #30, #781, #390, #119, #719, #641, #517, #874, #872, #34 ) ) ;
#787 = FACE_OUTER_BOUND ( 'NONE', #137, .T. ) ;
#788 = CARTESIAN_POINT ( 'NONE',  ( 8.420984155169891849, 0.000000000000000000, 138.6569945773395602 ) ) ;
#789 = ORIENTED_EDGE ( 'NONE', *, *, #555, .F. ) ;
#790 = DIRECTION ( 'NONE',  ( 0.000000000000000000, 0.000000000000000000, 1.000000000000000000 ) ) ;
#791 = ADVANCED_FACE ( 'NONE', ( #582, #42 ), #857, .F. ) ;
#792 = ORIENTED_EDGE ( 'NONE', *, *, #401, .F. ) ;
#793 = VECTOR ( 'NONE', #465, 1000.000000000000000 ) ;
#794 = FACE_OUTER_BOUND ( 'NONE', #446, .T. ) ;
#795 = ADVANCED_FACE ( 'NONE', ( #794 ), #169, .F. ) ;
#796 = ORIENTED_EDGE ( 'NONE', *, *, #127, .F. ) ;
#797 = FACE_OUTER_BOUND ( 'NONE', #829, .T. ) ;
#798 = AXIS2_PLACEMENT_3D ( 'NONE', #766, #140, #708 ) ;
#799 = PLANE ( 'NONE',  #505 ) ;
#800 = ORIENTED_EDGE ( 'NONE', *, *, #43, .T. ) ;
#801 = DIRECTION ( 'NONE',  ( -1.000000000000000000, 0.000000000000000000, 1.286899466156778151E-16 ) ) ;
#802 = DIRECTION ( 'NONE',  ( -1.324889058841014226E-16, -2.955521746645339351E-16, -1.000000000000000000 ) ) ;
#803 = ORIENTED_EDGE ( 'NONE', *, *, #620, .F. ) ;
#804 = CARTESIAN_POINT ( 'NONE',  ( -15.26460602744324646, 0.000000000000000000, 1.253254279986792952 ) ) ;
#805 = EDGE_LOOP ( 'NONE', ( #109, #122, #207, #479 ) ) ;
#806 = DIRECTION ( 'NONE',  ( -0.7071067811865436870, 0.000000000000000000, 0.7071067811865513475 ) ) ;
#807 = ADVANCED_FACE ( 'NONE', ( #311 ), #243, .F. ) ;
#808 = CARTESIAN_POINT ( 'NONE',  ( -15.26460602744324646, 13.11398119160500997, 4.757868120028709846 ) ) ;
#809 = EDGE_LOOP ( 'NONE', ( #818, #183, #340, #238 ) ) ;
#810 = VECTOR ( 'NONE', #674, 1000.000000000000000 ) ;
#811 = CARTESIAN_POINT ( 'NONE',  ( -15.26460602744322159, 15.00000000000000000, 189.9714043947263065 ) ) ;
#812 = VERTEX_POINT ( 'NONE', #335 ) ;
#813 = LINE ( 'NONE', #405, #214 ) ;
#814 = LINE ( 'NONE', #472, #696 ) ;
#815 = CARTESIAN_POINT ( 'NONE',  ( -15.26460602744324646, 15.00000000000000000, 1.253254279986792952 ) ) ;
#816 = ORIENTED_EDGE ( 'NONE', *, *, #772, .T. ) ;
#817 = FACE_OUTER_BOUND ( 'NONE', #877, .T. ) ;
#818 = ORIENTED_EDGE ( 'NONE', *, *, #600, .T. ) ;
#819 = ADVANCED_FACE ( 'NONE', ( #5 ), #617, .F. ) ;
#820 = DIRECTION ( 'NONE',  ( 0.000000000000000000, 1.000000000000000000, 0.000000000000000000 ) ) ;
#821 = ORIENTED_EDGE ( 'NONE', *, *, #620, .T. ) ;
#822 = VECTOR ( 'NONE', #150, 1000.000000000000000 ) ;
#823 = DIRECTION ( 'NONE',  ( -0.000000000000000000, 1.000000000000000000, -0.000000000000000000 ) ) ;
#824 = CARTESIAN_POINT ( 'NONE',  ( 2.265218384530698348, 1.999999999997095657, 174.9714043947263917 ) ) ;
#825 = VECTOR ( 'NONE', #59, 1000.000000000000000 ) ;
#826 = ORIENTED_EDGE ( 'NONE', *, *, #271, .F. ) ;
#827 = DIRECTION ( 'NONE',  ( 0.000000000000000000, -1.000000000000000000, 7.492070160219495271E-15 ) ) ;
#828 =( NAMED_UNIT ( * ) SI_UNIT ( $, .STERADIAN. ) SOLID_ANGLE_UNIT ( ) );
#829 = EDGE_LOOP ( 'NONE', ( #57, #60, #319, #181 ) ) ;
#830 = AXIS2_PLACEMENT_3D ( 'NONE', #301, #697, #26 ) ;
#831 = CARTESIAN_POINT ( 'NONE',  ( -3.982756142182843462, 0.000000000000000000, -10.02859560527365979 ) ) ;
#832 = EDGE_CURVE ( 'NONE', #841, #716, #813, .T. ) ;
#833 = CARTESIAN_POINT ( 'NONE',  ( 24.73539397255677841, 13.11398119160505438, 154.9714043947262780 ) ) ;
#834 = ORIENTED_EDGE ( 'NONE', *, *, #844, .F. ) ;
#835 = FACE_BOUND ( 'NONE', #554, .T. ) ;
#836 = EDGE_CURVE ( 'NONE', #685, #158, #274, .T. ) ;
#837 =( GEOMETRIC_REPRESENTATION_CONTEXT ( 3 ) GLOBAL_UNCERTAINTY_ASSIGNED_CONTEXT ( ( #504 ) ) GLOBAL_UNIT_ASSIGNED_CONTEXT ( ( #197, #760, #136 ) ) REPRESENTATION_CONTEXT ( 'NONE', 'WORKASPACE' ) );
#838 = ORIENTED_EDGE ( 'NONE', *, *, #164, .F. ) ;
#839 = FACE_BOUND ( 'NONE', #249, .T. ) ;
#840 = DIRECTION ( 'NONE',  ( 1.000000000000000000, 0.000000000000000000, -8.673617379884023639E-16 ) ) ;
#841 = VERTEX_POINT ( 'NONE', #61 ) ;
#842 = CARTESIAN_POINT ( 'NONE',  ( 24.73539397255682104, 0.000000000000000000, 181.9714043947262780 ) ) ;
#843 = CARTESIAN_POINT ( 'NONE',  ( 8.420984155169835006, 15.00000000000000000, 42.21183419698265027 ) ) ;
#844 = EDGE_CURVE ( 'NONE', #711, #486, #752, .T. ) ;
#845 = ORIENTED_EDGE ( 'NONE', *, *, #488, .F. ) ;
#846 = DIRECTION ( 'NONE',  ( -1.000000000000000000, -0.000000000000000000, 1.286899466156778151E-16 ) ) ;
#847 = LINE ( 'NONE', #321, #653 ) ;
#848 = ORIENTED_EDGE ( 'NONE', *, *, #289, .F. ) ;
#849 = CARTESIAN_POINT ( 'NONE',  ( 8.420984155169891849, 13.11398119160504905, 138.6569945773395602 ) ) ;
#850 = AXIS2_PLACEMENT_3D ( 'NONE', #118, #209, #827 ) ;
#851 = LINE ( 'NONE', #742, #83 ) ;
#852 = EDGE_LOOP ( 'NONE', ( #25, #616, #491, #286, #568, #74, #393, #422 ) ) ;
#853 = LINE ( 'NONE', #436, #733 ) ;
#854 = ADVANCED_FACE ( 'NONE', ( #691 ), #391, .F. ) ;
#855 = ORIENTED_EDGE ( 'NONE', *, *, #649, .F. ) ;
#856 = EDGE_CURVE ( 'NONE', #343, #508, #128, .T. ) ;
#857 = PLANE ( 'NONE',  #473 ) ;
#858 = ORIENTED_EDGE ( 'NONE', *, *, #413, .F. ) ;
#859 = DIRECTION ( 'NONE',  ( -1.286899466156778151E-16, 0.000000000000000000, -1.000000000000000000 ) ) ;
#860 = AXIS2_PLACEMENT_3D ( 'NONE', #540, #598, #195 ) ;
#861 = ORIENTED_EDGE ( 'NONE', *, *, #187, .T. ) ;
#862 = DIRECTION ( 'NONE',  ( -1.000000000000000000, -0.000000000000000000, 3.579015818096174421E-15 ) ) ;
#863 = ORIENTED_EDGE ( 'NONE', *, *, #194, .T. ) ;
#864 = LINE ( 'NONE', #167, #203 ) ;
#865 = CARTESIAN_POINT ( 'NONE',  ( -15.26460602744324646, 13.11398119160500997, 4.757868120028709846 ) ) ;
#866 = VECTOR ( 'NONE', #80, 1000.000000000000000 ) ;
#867 = CARTESIAN_POINT ( 'NONE',  ( 16.73539397255682104, 15.00000000000000000, 189.9714043947262780 ) ) ;
#868 = VERTEX_POINT ( 'NONE', #269 ) ;
#869 = EDGE_CURVE ( 'NONE', #716, #273, #746, .T. ) ;
#870 = DIRECTION ( 'NONE',  ( -1.000000000000000000, 0.000000000000000000, 1.541976423090495831E-15 ) ) ;
#871 = CARTESIAN_POINT ( 'NONE',  ( 20.73658061723904211, 0.000000000000000000, -10.02859560527374860 ) ) ;
#872 = ORIENTED_EDGE ( 'NONE', *, *, #443, .T. ) ;
#873 = LINE ( 'NONE', #528, #11 ) ;
#874 = ORIENTED_EDGE ( 'NONE', *, *, #514, .T. ) ;
#875 = VECTOR ( 'NONE', #237, 1000.000000000000000 ) ;
#876 = PLANE ( 'NONE',  #850 ) ;
#877 = EDGE_LOOP ( 'NONE', ( #236, #404, #539, #759, #826, #792, #848, #8, #789, #325 ) ) ;
#878 = AXIS2_PLACEMENT_3D ( 'NONE', #97, #718, #317 ) ;
#879 = CARTESIAN_POINT ( 'NONE',  ( 2.691715389677856507, 0.000000000000000000, 1.270150566522040503 ) ) ;
#880 = VERTEX_POINT ( 'NONE', #546 ) ;
ENDSEC;
END-ISO-10303-21;
